<?xml version="1.0" encoding="UTF-8"?>
<svg version="1.1" xmlns="http://www.w3.org/2000/svg" width="64" height="64">
<path d="M0 0 C1.36656738 -0.00945648 1.36656738 -0.00945648 2.76074219 -0.019104 C3.74204102 -0.01505554 4.72333984 -0.01100708 5.734375 -0.00683594 C6.7440332 -0.00874939 7.75369141 -0.01066284 8.79394531 -0.01263428 C10.92903899 -0.01399552 13.06414096 -0.01030331 15.19921875 -0.00195312 C18.47154288 0.0087471 21.74331799 -0.00185061 25.015625 -0.01464844 C27.08854288 -0.01332683 29.16146042 -0.01076442 31.234375 -0.00683594 C32.21567383 -0.0108844 33.19697266 -0.01493286 34.20800781 -0.019104 C35.11905273 -0.01279968 36.03009766 -0.00649536 36.96875 0 C37.77022461 0.00159119 38.57169922 0.00318237 39.39746094 0.00482178 C41.484375 0.25878906 41.484375 0.25878906 44.484375 2.25878906 C44.734375 4.82128906 44.734375 4.82128906 44.484375 7.25878906 C44.154375 7.58878906 43.824375 7.91878906 43.484375 8.25878906 C43.3636315 9.76079338 43.30483539 11.26789153 43.2734375 12.77441406 C43.23089844 14.15693359 43.23089844 14.15693359 43.1875 15.56738281 C43.13583652 17.51251302 43.091444 19.45785132 43.0546875 21.40332031 C42.7557523 30.35892055 42.7557523 30.35892055 39.484375 34.25878906 C36.24189902 35.88002705 32.68088794 35.44317761 29.1171875 35.46191406 C27.87048782 35.47046417 27.87048782 35.47046417 26.59860229 35.47918701 C24.83837153 35.48864052 23.07812303 35.49517238 21.31787109 35.49902344 C18.62696387 35.50872564 15.93682152 35.53974362 13.24609375 35.57128906 C11.53646287 35.57781949 9.82682653 35.58306981 8.1171875 35.58691406 C7.31290314 35.59926086 6.50861877 35.61160767 5.67996216 35.62432861 C2.3830098 35.6112065 -0.05935732 35.50432637 -2.99267578 33.92578125 C-5.62369285 31.04591838 -5.66525097 28.13400708 -5.796875 24.40722656 C-5.85294922 23.00730469 -5.85294922 23.00730469 -5.91015625 21.57910156 C-5.98074815 19.60775738 -6.05105845 17.6364031 -6.12109375 15.66503906 C-6.15847656 14.73433594 -6.19585937 13.80363281 -6.234375 12.84472656 C-6.26466797 11.98927246 -6.29496094 11.13381836 -6.32617188 10.25244141 C-6.30191024 8.26015654 -6.30191024 8.26015654 -7.515625 7.25878906 C-7.765625 4.82128906 -7.765625 4.82128906 -7.515625 2.25878906 C-4.35851408 0.15404845 -3.6048552 0.0071568 0 0 Z M2.484375 8.25878906 C2.46375 11.20816406 2.443125 14.15753906 2.421875 17.19628906 C2.412771 18.12691162 2.40366699 19.05753418 2.39428711 20.01635742 C2.39178955 20.7447583 2.38929199 21.47315918 2.38671875 22.22363281 C2.38148193 22.97249756 2.37624512 23.7213623 2.37084961 24.49291992 C2.29095748 26.28546645 2.29095748 26.28546645 3.484375 27.25878906 C5.00365538 27.3305887 6.52604982 27.34270914 8.046875 27.32128906 C9.28630859 27.30775391 9.28630859 27.30775391 10.55078125 27.29394531 C11.18886719 27.28234375 11.82695312 27.27074219 12.484375 27.25878906 C12.814375 24.94878906 13.144375 22.63878906 13.484375 20.25878906 C16.784375 20.25878906 20.084375 20.25878906 23.484375 20.25878906 C23.814375 22.56878906 24.144375 24.87878906 24.484375 27.25878906 C25.96344392 27.28568122 27.44264983 27.30513528 28.921875 27.32128906 C30.15744141 27.33869141 30.15744141 27.33869141 31.41796875 27.35644531 C33.47601438 27.49146254 33.47601438 27.49146254 34.484375 26.25878906 C34.57069374 24.91611493 34.59143973 23.56904584 34.58203125 22.22363281 C34.57953369 21.49523193 34.57703613 20.76683105 34.57446289 20.01635742 C34.56535889 19.08573486 34.55625488 18.1551123 34.546875 17.19628906 C34.52625 14.24691406 34.505625 11.29753906 34.484375 8.25878906 C23.924375 8.25878906 13.364375 8.25878906 2.484375 8.25878906 Z " fill="#000000" transform="translate(13.515625,15.7412109375)"/>
<path d="M0 0 C0.66 0 1.32 0 2 0 C2.33 0.66 2.66 1.32 3 2 C3.99 2.33 4.98 2.66 6 3 C5.34 5.31 4.68 7.62 4 10 C2.02 10 0.04 10 -2 10 C-2.66 7.69 -3.32 5.38 -4 3 C-3.01 2.67 -2.02 2.34 -1 2 C-0.67 1.34 -0.34 0.68 0 0 Z " fill="#000000" transform="translate(31,5)"/>
<path d="M0 0 C0 0.66 0 1.32 0 2 C0.99 2 1.98 2 3 2 C2.67 3.98 2.34 5.96 2 8 C0.02 8 -1.96 8 -4 8 C-4.33 6.02 -4.66 4.04 -5 2 C-2 0 -2 0 0 0 Z " fill="#000000" transform="translate(43,7)"/>
<path d="M0 0 C2.475 0.99 2.475 0.99 5 2 C4.67 3.98 4.34 5.96 4 8 C2.02 8 0.04 8 -2 8 C-2.33 6.02 -2.66 4.04 -3 2 C-2.01 2 -1.02 2 0 2 C0 1.34 0 0.68 0 0 Z " fill="#000000" transform="translate(21,7)"/>
<path d="M0 0 C1.32 0 2.64 0 4 0 C4 1.98 4 3.96 4 6 C2.35 5.67 0.7 5.34 -1 5 C-0.67 3.35 -0.34 1.7 0 0 Z " fill="#000000" transform="translate(41,35)"/>
<path d="M0 0 C2.475 0.495 2.475 0.495 5 1 C4.67 2.65 4.34 4.3 4 6 C2.68 6 1.36 6 0 6 C0 4.02 0 2.04 0 0 Z " fill="#000000" transform="translate(19,35)"/>
<path d="M0 0 C2.0625 0.4375 2.0625 0.4375 4 1 C4 2.65 4 4.3 4 6 C2.35 6 0.7 6 -1 6 C-1.042721 4.33388095 -1.04063832 2.66617115 -1 1 C-0.67 0.67 -0.34 0.34 0 0 Z " fill="#000000" transform="translate(41,26)"/>
<path d="M0 0 C2.0625 0.4375 2.0625 0.4375 4 1 C4 2.65 4 4.3 4 6 C2.35 6 0.7 6 -1 6 C-1.042721 4.33388095 -1.04063832 2.66617115 -1 1 C-0.67 0.67 -0.34 0.34 0 0 Z " fill="#000000" transform="translate(34,26)"/>
<path d="M0 0 C2.0625 0.4375 2.0625 0.4375 4 1 C4 2.65 4 4.3 4 6 C2.35 6 0.7 6 -1 6 C-1.042721 4.33388095 -1.04063832 2.66617115 -1 1 C-0.67 0.67 -0.34 0.34 0 0 Z " fill="#000000" transform="translate(27,26)"/>
<path d="M0 0 C2.0625 0.4375 2.0625 0.4375 4 1 C4 2.65 4 4.3 4 6 C2.35 6 0.7 6 -1 6 C-1.042721 4.33388095 -1.04063832 2.66617115 -1 1 C-0.67 0.67 -0.34 0.34 0 0 Z " fill="#000000" transform="translate(20,26)"/>
<path d="M0 0 C1.32 0.66 2.64 1.32 4 2 C3.67 3.65 3.34 5.3 3 7 C1.35 6.67 -0.3 6.34 -2 6 C-2 4.68 -2 3.36 -2 2 C-1.34 2 -0.68 2 0 2 C0 1.34 0 0.68 0 0 Z " fill="#000000" transform="translate(49,8)"/>
<path d="M0 0 C0.33 0.66 0.66 1.32 1 2 C1.66 2 2.32 2 3 2 C2.67 3.65 2.34 5.3 2 7 C0.68 7 -0.64 7 -2 7 C-2.33 5.35 -2.66 3.7 -3 2 C-2.01 1.34 -1.02 0.68 0 0 Z " fill="#000000" transform="translate(14,8)"/>
</svg>
